<?xml version="1.0" standalone="no"?>
<!DOCTYPE svg PUBLIC "-//W3C//DTD SVG 20010904//EN"
 "http://www.w3.org/TR/2001/REC-SVG-20010904/DTD/svg10.dtd">
<svg version="1.0" xmlns="http://www.w3.org/2000/svg"
 width="462.000000pt" height="210.000000pt" viewBox="0 0 462.000000 210.000000"
 preserveAspectRatio="xMidYMid meet">

<g transform="translate(0.000000,210.000000) scale(0.100000,-0.100000)"
fill="#000000" stroke="none">
<path d="M2190 1875 c-192 -43 -356 -201 -411 -395 -18 -64 -15 -214 5 -285
53 -185 209 -338 386 -379 466 -110 832 355 618 782 -104 208 -366 329 -598
277z m49 -179 c45 -47 34 -148 -18 -176 -70 -37 -144 43 -121 131 19 69 94 93
139 45z m256 -8 c24 -28 27 -39 22 -82 -3 -38 -11 -55 -31 -73 -57 -49 -125
-12 -133 73 -5 43 -2 54 22 82 20 24 35 32 60 32 25 0 40 -8 60 -32z m-421
-209 c69 -82 -3 -209 -99 -173 -24 10 -45 58 -45 107 0 91 89 132 144 66z
m587 5 c19 -20 24 -36 24 -79 0 -65 -30 -105 -79 -105 -36 0 -46 6 -69 40 -30
44 -14 148 25 163 34 14 75 6 99 -19z m-280 -77 c42 -28 77 -79 90 -132 9 -34
18 -44 60 -68 66 -36 89 -84 65 -133 -33 -70 -174 -120 -316 -111 -152 9 -270
74 -270 148 0 25 9 41 40 70 22 22 52 42 65 45 17 4 25 13 25 28 0 12 11 45
25 73 48 96 141 130 216 80z"/>
<path d="M334 556 c-10 -27 6 -35 76 -38 65 -3 65 -3 65 -33 l0 -30 -70 -5
-70 -5 -3 -54 c-3 -58 5 -75 31 -65 12 4 17 18 17 45 l0 39 53 0 c65 0 91 22
91 76 0 55 -29 76 -113 82 -60 4 -72 2 -77 -12z"/>
<path d="M636 486 c-20 -46 -36 -87 -36 -91 0 -3 10 -5 22 -3 16 2 28 18 43
57 24 59 26 59 62 -24 l21 -50 -79 -3 c-64 -2 -81 -6 -89 -21 -5 -10 -6 -21
-3 -25 10 -10 221 -7 227 3 3 5 -16 60 -42 123 -64 148 -75 151 -126 34z"/>
<path d="M854 555 c-8 -20 4 -35 27 -35 14 0 19 7 19 25 0 18 -5 25 -20 25
-11 0 -23 -7 -26 -15z"/>
<path d="M935 557 c-3 -7 -4 -62 -3 -123 3 -94 5 -109 21 -112 15 -3 17 7 17
97 l0 101 41 0 c36 0 40 2 37 23 -3 19 -10 22 -56 25 -37 2 -54 -1 -57 -11z"/>
<path d="M1127 564 c-4 -4 -7 -22 -7 -41 0 -27 4 -33 21 -33 17 0 20 5 17 37
-3 35 -17 51 -31 37z"/>
<path d="M1234 555 c-4 -9 -2 -21 4 -27 15 -15 44 -1 40 19 -4 23 -36 29 -44
8z"/>
<path d="M1317 564 c-4 -4 -7 -61 -7 -126 0 -111 1 -118 20 -118 19 0 20 7 20
99 l0 100 38 3 c29 2 37 7 37 23 0 17 -8 20 -50 23 -28 2 -54 0 -58 -4z"/>
<path d="M1536 486 c-20 -46 -36 -87 -36 -90 0 -3 9 -6 21 -6 15 0 26 14 45
56 14 31 26 55 28 53 2 -2 15 -32 29 -66 l26 -63 -79 0 c-67 0 -81 -3 -89 -19
-6 -10 -7 -21 -4 -25 10 -10 221 -7 227 3 4 5 -15 60 -42 123 -63 149 -75 152
-126 34z"/>
<path d="M1820 562 c-54 -18 -67 -77 -24 -111 15 -12 35 -21 46 -21 22 0 78
-27 78 -37 0 -4 -12 -17 -27 -29 -20 -16 -25 -26 -17 -34 15 -15 59 3 73 29
28 51 2 84 -80 107 -61 17 -74 35 -39 54 32 17 24 54 -10 42z"/>
<path d="M2140 546 c0 -25 2 -26 64 -26 71 0 99 -17 79 -48 -7 -13 -28 -18
-77 -20 l-67 -3 3 -62 c2 -47 7 -62 18 -62 10 0 17 13 20 40 l5 40 52 3 c42 2
56 8 73 29 26 34 25 66 -3 99 -20 23 -33 27 -95 32 l-72 5 0 -27z"/>
<path d="M2404 555 c-11 -28 11 -36 92 -33 71 3 79 5 79 23 0 18 -8 20 -83 23
-68 2 -83 0 -88 -13z"/>
<path d="M2634 555 c-4 -9 -2 -21 4 -27 16 -16 47 -5 47 17 0 26 -42 34 -51
10z"/>
<path d="M2714 557 c-2 -7 -3 -62 -2 -123 3 -101 4 -109 23 -109 18 0 20 8 23
98 l3 97 34 0 c31 0 35 3 35 25 0 24 -3 25 -55 25 -37 0 -57 -4 -61 -13z"/>
<path d="M3041 559 c-29 -11 -50 -37 -51 -61 0 -29 34 -55 94 -72 59 -17 72
-37 36 -56 -23 -12 -27 -50 -6 -50 27 0 69 45 69 73 0 39 -16 52 -83 71 -70
20 -81 32 -50 56 30 23 24 51 -9 39z"/>
<path d="M3244 555 c-4 -9 -2 -21 4 -27 15 -15 44 -1 40 19 -4 23 -36 29 -44
8z"/>
<path d="M3327 564 c-4 -4 -7 -61 -7 -126 0 -111 1 -118 20 -118 19 0 20 7 20
99 l0 100 38 3 c29 2 37 7 37 23 0 17 -8 20 -50 23 -28 2 -54 0 -58 -4z"/>
<path d="M3630 545 c0 -15 6 -25 14 -25 22 0 46 -40 46 -77 0 -32 -28 -73 -50
-73 -5 0 -10 -9 -10 -20 0 -53 91 7 103 68 8 37 -8 94 -31 115 -9 8 -29 20
-45 26 -25 10 -27 9 -27 -14z"/>
<path d="M3813 554 c-9 -25 8 -33 76 -36 49 -2 67 -7 75 -21 18 -29 -17 -47
-91 -47 l-64 0 3 -62 c2 -48 7 -63 18 -63 10 0 17 13 20 40 4 36 8 40 35 43
26 3 35 -4 63 -43 48 -68 85 -59 41 11 l-21 34 21 26 c36 45 20 105 -32 124
-48 16 -136 13 -144 -6z"/>
<path d="M4094 555 c-11 -28 11 -36 92 -33 71 3 79 5 79 23 0 18 -8 20 -83 23
-68 2 -83 0 -88 -13z"/>
<path d="M1870 549 c0 -16 48 -59 66 -59 22 0 17 37 -8 54 -26 19 -58 21 -58
5z"/>
<path d="M3100 549 c0 -16 48 -59 66 -59 21 0 17 24 -9 48 -25 23 -57 29 -57
11z"/>
<path d="M3537 540 c-53 -42 -58 -124 -10 -180 30 -36 73 -41 73 -10 0 11 -6
20 -13 20 -25 0 -47 36 -47 74 0 29 7 44 30 66 17 15 30 33 30 39 0 18 -35 13
-63 -9z"/>
<path d="M1124 456 c-3 -7 -4 -40 -2 -72 2 -44 7 -59 18 -59 12 0 16 16 18 73
2 60 0 72 -13 72 -9 0 -18 -6 -21 -14z"/>
<path d="M2404 455 c-11 -28 10 -36 87 -33 66 3 74 5 74 23 0 18 -8 20 -78 23
-64 2 -78 0 -83 -13z"/>
<path d="M4094 455 c-11 -27 7 -35 81 -35 57 0 74 3 79 16 11 28 -4 34 -80 34
-56 0 -76 -4 -80 -15z"/>
<path d="M1760 396 c0 -20 37 -63 60 -69 35 -9 35 20 0 53 -34 32 -60 39 -60
16z"/>
<path d="M2990 391 c0 -24 29 -57 58 -66 32 -9 29 20 -7 56 -34 34 -51 37 -51
10z"/>
<path d="M2402 348 c3 -22 7 -23 88 -23 81 0 85 1 88 23 3 21 1 22 -88 22 -89
0 -91 -1 -88 -22z"/>
<path d="M4092 348 c3 -22 7 -23 88 -23 81 0 85 1 88 23 3 21 1 22 -88 22 -89
0 -91 -1 -88 -22z"/>
</g>
</svg>
